<?xml version="1.0" encoding="UTF-8" standalone="no"?>
<svg
   id="Layer_1"
   data-name="Layer 1"
   viewBox="0 0 999.99994 268.60925"
   version="1.1"
   xml:space="preserve"
   width="999.99994"
   height="268.60925"
   xmlns="http://www.w3.org/2000/svg"
   xmlns:svg="http://www.w3.org/2000/svg"><defs
     id="defs519"><style
       id="style517">.cls-1{fill:#1877F2;}</style></defs><path
     class="cls-1"
     d="M 391.92831,205.37608 A 73.186537,73.186537 0 0 1 355.51069,196.5937 60.539904,60.539904 0 0 1 332.09099,172.35432 79.04146,79.04146 0 0 1 332.09099,101.15846 62.530578,62.530578 0 0 1 355.51069,77.036127 73.303636,73.303636 0 0 1 391.92831,68.370841 88.99483,88.99483 0 0 1 420.61743,72.820583 70.259076,70.259076 0 0 1 444.03712,85.701414 L 429.51691,109.12115 A 56.207261,56.207261 0 0 0 413.35732,101.15846 54.684981,54.684981 0 0 0 395.44126,98.230949 40.633166,40.633166 0 0 0 375.18323,102.91493 33.373061,33.373061 0 0 0 362.0682,116.38126 40.867363,40.867363 0 0 0 357.03297,136.28799 43.209332,43.209332 0 0 0 361.5998,156.54603 33.49016,33.49016 0 0 0 374.83193,170.94914 39.813476,39.813476 0 0 0 395.20706,175.86727 51.523322,51.523322 0 0 0 415.348,172.35432 V 153.38437 H 389.70344 V 126.92012 H 446.61329 V 188.7481 A 59.954412,59.954412 0 0 1 431.62468,197.53049 109.48706,109.48706 0 0 1 391.92831,205.37608 Z"
     id="path521"
     style="stroke-width:1" /><path
     class="cls-1"
     d="M 501.53246,204.79055 A 40.984461,40.984461 0 0 1 478.11277,198.23304 46.019695,46.019695 0 0 1 462.18738,180.31697 61.476691,61.476691 0 0 1 462.18738,128.55945 45.317104,45.317104 0 0 1 478.11277,110.64339 43.677726,43.677726 0 0 1 518.86304,107.83303 33.841455,33.841455 0 0 1 531.74387,117.90349 V 106.19365 H 559.4962 V 201.62889 H 531.74387 V 189.91905 A 34.19275,34.19275 0 0 1 518.86304,200.10661 44.029021,44.029021 0 0 1 501.53246,204.79055 Z M 509.14386,177.85791 A 18.501557,18.501557 0 0 0 524.01537,171.41749 29.157517,29.157517 0 0 0 524.01537,137.45894 20.375132,20.375132 0 0 0 495.32625,136.40505 V 136.40505 L 494.27236,137.45894 A 28.806221,28.806221 0 0 0 494.27236,171.41749 18.501557,18.501557 0 0 0 509.14386,177.85791 Z"
     id="path523"
     style="stroke-width:1" /><path
     class="cls-1"
     d="M 573.89931,202.09729 V 106.77914 H 601.65165 V 117.7864 A 32.202077,32.202077 0 0 1 613.36149,107.83303 36.417621,36.417621 0 0 1 629.75528,104.20298 32.319175,32.319175 0 0 1 646.26616,108.30142 28.806221,28.806221 0 0 1 657.27342,120.01127 36.651818,36.651818 0 0 1 671.44233,108.30142 45.668399,45.668399 0 0 1 690.64648,104.20298 35.129538,35.129538 0 0 1 716.87653,114.50764 38.75959,38.75959 0 0 1 726.8299,142.61127 V 202.33148 H 694.97912 V 147.06101 A 17.213474,17.213474 0 0 0 691.46617,135.35116 12.763732,12.763732 0 0 0 681.1615,131.13562 14.051815,14.051815 0 0 0 669.45166,135.93666 20.843526,20.843526 0 0 0 665.23611,150.10557 V 202.21439 H 633.38533 V 147.17811 A 17.916064,17.916064 0 0 0 629.87238,135.46826 12.529535,12.529535 0 0 0 619.68481,131.25272 14.286012,14.286012 0 0 0 607.97496,136.05376 21.546117,21.546117 0 0 0 603.87652,150.22267 V 202.33148 Z"
     id="path525"
     style="stroke-width:1" /><path
     class="cls-1"
     d="M 758.44649,95.06929 A 17.564769,17.564769 0 1 1 771.09312,89.916958 16.979277,16.979277 0 0 1 758.44649,95.06929 Z M 742.63819,202.09733 V 106.77918 H 774.37188 V 202.21443 Z"
     id="path527"
     style="stroke-width:1" /><path
     class="cls-1"
     d="M 790.06307,202.09729 V 106.77914 H 817.9325 V 118.48899 A 35.129538,35.129538 0 0 1 831.04753,108.41852 40.984461,40.984461 0 0 1 848.9636,104.67137 35.129538,35.129538 0 0 1 875.31075,114.97603 38.75959,38.75959 0 0 1 885.26412,143.07966 V 202.79988 H 853.41334 V 147.06101 A 17.330572,17.330572 0 0 0 849.54909,135.35116 13.70052,13.70052 0 0 0 838.77603,131.13562 16.042489,16.042489 0 0 0 826.0123,136.40505 19.438344,19.438344 0 0 0 821.32836,150.10557 V 202.21439 Z"
     id="path529"
     style="stroke-width:1" /><path
     class="cls-1"
     d="M 945.92112,245.89211 A 96.957525,96.957525 0 0 1 923.43822,243.08175 72.366848,72.366848 0 0 1 901.775,234.65066 L 912.19676,211.23097 A 67.214516,67.214516 0 0 0 926.95117,217.20299 58.54923,58.54923 0 0 0 942.64236,219.42786 31.14819,31.14819 0 0 0 961.37812,214.27553 18.384458,18.384458 0 0 0 968.28693,198.46723 V 189.68485 A 32.319175,32.319175 0 0 1 956.57708,197.99884 40.750264,40.750264 0 0 1 940.76879,200.9263 42.155446,42.155446 0 0 1 917.3491,194.48589 44.497415,44.497415 0 0 1 901.775,177.27241 55.50467,55.50467 0 0 1 901.775,128.09106 45.317104,45.317104 0 0 1 917.70039,110.76049 42.155446,42.155446 0 0 1 941.12008,104.32007 42.975135,42.975135 0 0 1 958.68485,108.06722 33.607258,33.607258 0 0 1 971.68278,118.25479 L 972.26827,106.54494 H 999.90351 V 198.35014 A 43.32643,43.32643 0 0 1 985.6175,233.47967 59.368919,59.368919 0 0 1 945.92112,245.89211 Z M 948.38019,175.63303 A 19.204147,19.204147 0 0 0 963.25169,169.19262 26.112957,26.112957 0 0 0 963.25169,136.40505 20.609329,20.609329 0 0 0 934.09418,136.40505 V 136.40505 A 26.112957,26.112957 0 0 0 934.09418,169.19262 19.204147,19.204147 0 0 0 948.61438,174.93044 Z"
     id="path531"
     style="stroke-width:1" /><path
     class="cls-1"
     d="M 270.26301,134.88281 A 135.13162,135.13162 0 1 0 114.05371,268.60925 V 173.8766 H 79.743868 V 134.88281 H 114.05371 V 104.67141 C 114.05371,70.712811 134.1946,52.094155 165.10859,52.094155 A 201.05806,201.05806 0 0 1 195.31999,54.670322 V 88.394678 H 178.34072 A 19.438344,19.438344 0 0 0 156.3262,109.47245 V 134.88281 H 193.79771 L 187.47439,173.9937 H 156.3262 V 268.60925 A 135.13162,135.13162 0 0 0 270.26301,134.88281 Z"
     id="path533"
     style="stroke-width:1" /></svg>
